<?xml version="1.0" encoding="UTF-8" standalone="no"?>
<!-- Created with Inkscape (http://www.inkscape.org/) -->

<svg
   xmlns:dc="http://purl.org/dc/elements/1.1/"
   xmlns:cc="http://creativecommons.org/ns#"
   xmlns:rdf="http://www.w3.org/1999/02/22-rdf-syntax-ns#"
   xmlns:svg="http://www.w3.org/2000/svg"
   xmlns="http://www.w3.org/2000/svg"
   xmlns:xlink="http://www.w3.org/1999/xlink"
   xmlns:sodipodi="http://sodipodi.sourceforge.net/DTD/sodipodi-0.dtd"
   xmlns:inkscape="http://www.inkscape.org/namespaces/inkscape"
   width="210mm"
   height="297mm"
   viewBox="0 0 744.09448819 1052.3622047"
   id="svg2"
   version="1.1"
   inkscape:version="0.91 r13725"
   sodipodi:docname="scratch.svg">
  <defs
     id="defs4">
    <linearGradient
       inkscape:collect="always"
       id="linearGradient4146">
      <stop
         style="stop-color:#edff0d;stop-opacity:1;"
         offset="0"
         id="stop4148" />
      <stop
         style="stop-color:#ed000d;stop-opacity:1"
         offset="1"
         id="stop4150" />
    </linearGradient>
    <radialGradient
       inkscape:collect="always"
       xlink:href="#linearGradient4146"
       id="radialGradient4152"
       cx="302.05936"
       cy="458.59918"
       fx="302.05936"
       fy="458.59918"
       r="196.9604"
       gradientTransform="matrix(1,0,0,1.3861939,0,-120.59215)"
       gradientUnits="userSpaceOnUse" />
  </defs>
  <sodipodi:namedview
     id="base"
     pagecolor="#ffffff"
     bordercolor="#666666"
     borderopacity="1.0"
     inkscape:pageopacity="0.0"
     inkscape:pageshadow="2"
     inkscape:zoom="0.7"
     inkscape:cx="162.47887"
     inkscape:cy="715.73907"
     inkscape:document-units="px"
     inkscape:current-layer="layer1"
     showgrid="false"
     inkscape:window-width="1329"
     inkscape:window-height="723"
     inkscape:window-x="37"
     inkscape:window-y="1"
     inkscape:window-maximized="1" />
  <metadata
     id="metadata7">
    <rdf:RDF>
      <cc:Work
         rdf:about="">
        <dc:format>image/svg+xml</dc:format>
        <dc:type
           rdf:resource="http://purl.org/dc/dcmitype/StillImage" />
        <dc:title></dc:title>
      </cc:Work>
    </rdf:RDF>
  </metadata>
  <g
     inkscape:label="Layer 1"
     inkscape:groupmode="layer"
     id="layer1">
    <path
       style="fill:url(#radialGradient4152);fill-rule:evenodd;stroke:#000000;stroke-width:1px;stroke-linecap:butt;stroke-linejoin:miter;stroke-opacity:1;fill-opacity:1"
       d="m 141.42857,346.64792 c 0,0 -75.714284,212.85714 25.71429,222.85714 101.42857,10 301.42857,31.42857 322.85714,-5.71428 21.42857,-37.14286 10,-230 -12.85714,-241.42858 -22.85715,-11.42857 -30,-108.57142 -30,-108.57142 0,0 -34.28572,65.71428 -27.14286,140 7.14286,74.28571 -61.42857,-92.85715 -61.42857,-134.28572 0,-41.42857 -24.28572,-31.42857 -22.85714,-57.14286 C 337.14286,136.64792 350,39.505061 350,39.505061 c 0,0 -71.42857,109.999999 -57.14286,165.714289 14.28572,55.71428 -14.28571,148.57143 -24.28571,27.14285 -10,-121.42857 -60,-181.428567 -60,-181.428567 0,0 32.85714,45.714286 0,112.857147 -32.85714,67.14285 -51.42857,-52.85715 -51.42857,-52.85715 0,0 -51.42857,35.71429 -48.57143,71.42857 2.85714,35.71429 32.85714,164.28572 32.85714,164.28572 z"
       id="path3336"
       inkscape:connector-curvature="0" />
  </g>
</svg>
